<?xml version="1.0" encoding="UTF-8" standalone="no"?>
<svg
   id="Layer_1"
   data-name="Layer 1"
   viewBox="0 0 1080.0063 504.97452"
   version="1.1"
   sodipodi:docname="AboutUs.svg"
   inkscape:version="1.2.2 (b0a8486541, 2022-12-01)"
   width="1080.0063"
   height="504.97452"
   xmlns:inkscape="http://www.inkscape.org/namespaces/inkscape"
   xmlns:sodipodi="http://sodipodi.sourceforge.net/DTD/sodipodi-0.dtd"
   xmlns="http://www.w3.org/2000/svg"
   xmlns:svg="http://www.w3.org/2000/svg"
   xmlns:rdf="http://www.w3.org/1999/02/22-rdf-syntax-ns#"
   xmlns:cc="http://creativecommons.org/ns#"
   xmlns:dc="http://purl.org/dc/elements/1.1/">
  <sodipodi:namedview
     id="namedview282"
     pagecolor="#9f9f9f"
     bordercolor="#666666"
     borderopacity="1.0"
     inkscape:showpageshadow="2"
     inkscape:pageopacity="0"
     inkscape:pagecheckerboard="true"
     inkscape:deskcolor="#aeaeae"
     showgrid="false"
     inkscape:zoom="0.57767046"
     inkscape:cx="117.71417"
     inkscape:cy="219.84853"
     inkscape:window-width="1850"
     inkscape:window-height="1057"
     inkscape:window-x="1990"
     inkscape:window-y="0"
     inkscape:window-maximized="1"
     inkscape:current-layer="text442" />
  <defs
     id="defs262">
    <rect
       x="647.95081"
       y="499.85645"
       width="774.08575"
       height="156.60539"
       id="rect444" />
    <style
       id="style260">.cls-1{fill:#fff;}</style>
    <rect
       x="647.95081"
       y="499.85645"
       width="605.8703"
       height="169.03038"
       id="rect444-6" />
  </defs>
  <title
     id="title264">URY-Plain-WithSpace-White</title>
  <g
     id="Layer_2"
     data-name="Layer 2"
     transform="translate(-164.4468,-164.7)">
    <path
       class="cls-1"
       d="m 352.55,164.7 c 0,0 -189,80.4 -188.1,226.7 0.9,151 188.1,226.4 188.1,226.4 0,0 -111.55,-106.3 -111.55,-226.5 0,-139.7 111.55,-226.6 111.55,-226.6 z"
       id="path266" />
    <path
       class="cls-1"
       d="m 421.85,216.1 c 0,0 -146.4,62.1 -145.6,175.2 0.6,116.6 145.6,174.9 145.6,174.9 0,0 -86.1,-82.2 -86.1,-175.2 -0.2,-107.9 86.1,-174.9 86.1,-174.9 z"
       id="path268" />
    <path
       class="cls-1"
       d="m 1056.35,164.7 c 0,0 189,80.4 188.1,226.7 -0.9,151 -188.1,226.4 -188.1,226.4 0,0 111.3,-106.3 111.3,-226.6 0.2,-139.6 -111.3,-226.5 -111.3,-226.5 z"
       id="path270" />
    <path
       class="cls-1"
       d="m 987,216.1 c 0,0 146.4,62.1 145.6,175.2 C 1132,507.9 987,566.2 987,566.2 c 0,0 86.1,-82.2 86.1,-175.2 C 1073.35,283.1 987,216.1 987,216.1 Z"
       id="path272" />
  </g>
  <path
     class="cls-1"
     d="m 323.5032,130.7 v 83.8 a 20,20 0 0 0 0.8,3.5 c 0.5,1.8 1.1,3.9 1.7,6 a 61.71,61.71 0 0 0 2,6.5 c 0.8,2.1 1.2,3.6 1.7,4.7 a 35.89,35.89 0 0 0 6.9,10.7 37.21,37.21 0 0 0 9.5,6.9 43,43 0 0 0 11.3,3.8 63.84,63.84 0 0 0 12.2,1.2 c 11.2,0 20.1,-2.1 26.7,-6.5 6.6,-4.4 12.2,-11.9 16.9,-22.8 0.2,-0.5 0.5,-1.1 0.8,-2 a 6.74,6.74 0 0 0 0.9,-2.6 c 0.3,-0.9 0.5,-1.8 0.8,-2.6 a 3.64,3.64 0 0 0 0.3,-1.4 v -89.1 h 35 v 94.1 c 0,0.3 -0.2,0.8 -0.3,1.5 -0.1,0.7 -0.3,1.5 -0.6,2.4 a 13.78,13.78 0 0 0 -0.6,2.6 14.33,14.33 0 0 1 -0.5,2 99.71,99.71 0 0 1 -11.3,25.7 78,78 0 0 1 -17.2,19.3 72.4,72.4 0 0 1 -22.7,12.4 85.85,85.85 0 0 1 -57.1,-1 86.76,86.76 0 0 1 -26.3,-15.1 79.41,79.41 0 0 1 -18.9,-23.3 62.06,62.06 0 0 1 -7.3,-30.1 v -90.8 z"
     id="path275" />
  <path
     class="cls-1"
     d="m 462.1032,212.9 a 84.77,84.77 0 0 1 5.3,-29 91.19,91.19 0 0 1 14.8,-26.4 76.18,76.18 0 0 1 22.7,-19.2 58.46,58.46 0 0 1 29,-7.4 h 92.3 v 36.9 h -94.2 a 20.82,20.82 0 0 0 -11.8,4.1 57.9,57.9 0 0 0 -10.7,9.8 62.73,62.73 0 0 0 -7.9,12.5 29.84,29.84 0 0 0 -3,12.2 v 88.8 h -36.7 v -82.3 z"
     id="path277" />
  <path
     class="cls-1"
     d="m 671.3032,285.1 a 96.89,96.89 0 0 1 -20.5,-15.7 81.72,81.72 0 0 1 -14.7,-20.8 57,57 0 0 1 -5.6,-25.2 v -92.6 h 35 v 83.8 a 25,25 0 0 0 0.9,6.2 43.4,43.4 0 0 0 2.4,6.9 c 1.1,2.4 2,4.7 3.2,6.8 1.2,2.1 2.1,4.1 3,5.7 a 33,33 0 0 0 7.1,8.8 32.63,32.63 0 0 0 8.9,5.4 42,42 0 0 0 10.3,2.6 81.4,81.4 0 0 0 11,0.8 c 9.8,0 18.1,-2 25.1,-6 7,-4 12.4,-10.6 16.2,-19.9 a 32.72,32.72 0 0 0 1.2,-3.2 38.61,38.61 0 0 0 1.5,-3.9 c 0.4,-1.3 0.9,-2.4 1.2,-3.3 a 10.43,10.43 0 0 0 0.5,-1.7 v -89.1 h 35 v 95.9 a 36.07,36.07 0 0 1 -1.4,9.1 67.18,67.18 0 0 1 -3.5,9.8 c -1.4,3.3 -2.9,6.3 -4.5,9.4 -1.7,2.9 -3.2,5.4 -4.5,7.6 a 55.54,55.54 0 0 1 -20.2,19.8 130.34,130.34 0 0 1 -26,11.3 l -2.7,1.7 v 63.3 h -35.8 v -63.4 a 124.81,124.81 0 0 1 -23.1,-10.1 z"
     id="path279" />
  <metadata
     id="metadata334">
    <rdf:RDF>
      <cc:Work
         rdf:about="">
        <dc:title>URY-Plain-WithSpace-White</dc:title>
      </cc:Work>
    </rdf:RDF>
  </metadata>
  <g
     aria-label="About Us"
     transform="translate(-530.04576,-142.24387)"
     id="text442"
     style="font-weight:600;font-size:133.333px;line-height:1.25;font-family:Raleway;-inkscape-font-specification:'Raleway Semi-Bold';text-align:end;white-space:pre;shape-inside:url(#rect444);fill:#ffffff">
    <path
       d="m 894.17174,625.88511 -39.9999,-93.99976 h -18.93328 l -39.9999,93.99976 h 20.93328 l 8.53331,-20.93328 h 39.46657 l 8.53331,20.93328 z M 856.8385,586.81854 h -24.79993 l 12.39996,-30.26659 z"
       style="font-weight:bold;font-family:Gotham;-inkscape-font-specification:'Gotham, Bold'"
       id="path477" />
    <path
       d="m 981.50497,590.2852 v -0.26667 c 0,-23.8666 -15.86663,-36.93323 -32.53325,-36.93323 -10.53331,0 -17.33329,4.93332 -22.26661,11.59997 V 528.55202 H 906.4385 v 97.33309 h 20.26661 v -9.33331 c 4.79999,5.73332 11.46664,10.66664 22.26661,10.66664 16.93329,0 32.53325,-13.06663 32.53325,-36.93324 z m -20.26661,0 c 0,11.99997 -7.99998,19.73328 -17.46663,19.73328 -9.46664,0 -17.33329,-7.86664 -17.33329,-19.73328 v -0.26667 c 0,-11.86663 7.86665,-19.73328 17.33329,-19.73328 9.46665,0 17.46663,7.86665 17.46663,19.73328 z"
       style="font-weight:bold;font-family:Gotham;-inkscape-font-specification:'Gotham, Bold'"
       id="path479" />
    <path
       d="m 1070.3046,590.2852 v -0.26667 c 0,-20.53328 -16.3999,-36.93323 -38.5332,-36.93323 -22.2666,0 -38.79989,16.66662 -38.79989,37.1999 v 0.26667 c 0,20.53328 16.39999,36.93324 38.53319,36.93324 22.2667,0 38.7999,-16.66663 38.7999,-37.19991 z m -19.9999,0.26667 c 0,10.5333 -6.9333,19.46661 -18.5333,19.46661 -11.2,0 -18.7999,-9.19997 -18.7999,-19.73328 v -0.26667 c 0,-10.5333 6.9333,-19.46661 18.5332,-19.46661 11.2,0 18.8,9.19997 18.8,19.73328 z"
       style="font-weight:bold;font-family:Gotham;-inkscape-font-specification:'Gotham, Bold'"
       id="path481" />
    <path
       d="m 1149.9044,625.88511 v -71.46648 h -20.2666 v 39.86656 c 0,9.59998 -4.9334,14.5333 -12.6667,14.5333 -7.7333,0 -12.2666,-4.93332 -12.2666,-14.5333 v -39.86656 h -20.2666 v 46.26654 c 0,16.39996 8.9333,26.53327 24.2666,26.53327 10.2666,0 16.2666,-5.46665 20.9333,-11.46664 v 10.13331 z"
       style="font-weight:bold;font-family:Gotham;-inkscape-font-specification:'Gotham, Bold'"
       id="path483" />
    <path
       d="m 1208.1708,622.95178 v -16.26662 c -2.9333,1.59999 -6.2667,2.53333 -10,2.53333 -4.5333,0 -6.5333,-2.26667 -6.5333,-6.93332 v -30.53326 h 16.8 v -17.33328 h -16.8 v -18.26662 h -20.2666 v 18.26662 h -8.5333 v 17.33328 h 8.5333 v 33.86658 c 0,16.5333 8.4,21.46662 20.7999,21.46662 6.8,0 11.7333,-1.6 16,-4.13333 z"
       style="font-weight:bold;font-family:Gotham;-inkscape-font-specification:'Gotham, Bold'"
       id="path485" />
    <path
       d="m 1345.3705,585.21855 v -52.66654 h -20.5333 v 53.46653 c 0,14.79997 -7.6,22.39995 -20.1333,22.39995 -12.5333,0 -20.1333,-7.86665 -20.1333,-23.06661 v -52.79987 h -20.5333 v 53.3332 c 0,27.4666 15.3333,41.46656 40.3999,41.46656 25.0666,0 40.9333,-13.86663 40.9333,-42.13322 z"
       style="font-weight:bold;font-family:Gotham;-inkscape-font-specification:'Gotham, Bold'"
       id="path487" />
    <path
       d="m 1416.5704,604.15183 v -0.26666 c 0,-13.06664 -11.6,-17.86663 -21.6,-21.19995 -7.7333,-2.66666 -14.5333,-4.53332 -14.5333,-8.53331 v -0.26667 c 0,-2.79999 2.5333,-4.93332 7.4667,-4.93332 5.2,0 12.2666,2.53333 19.3333,6.66665 l 7.7333,-13.99996 c -7.7333,-5.19999 -17.6,-8.26665 -26.6666,-8.26665 -14.4,0 -26.1333,8.13331 -26.1333,22.66661 v 0.26667 c 0,13.86663 11.3333,18.53328 21.3333,21.46661 7.8666,2.39999 14.7999,3.86665 14.7999,8.26664 v 0.26667 c 0,3.19999 -2.6666,5.33332 -8.5333,5.33332 -6.6666,0 -14.7999,-2.93333 -22.5332,-8.53331 l -8.6667,13.3333 c 9.4667,7.46664 20.6666,10.79997 30.6666,10.79997 15.4666,0 27.3333,-7.19998 27.3333,-23.06661 z"
       style="font-weight:bold;font-family:Gotham;-inkscape-font-specification:'Gotham, Bold'"
       id="path489" />
  </g>
</svg>
