<?xml version="1.0" encoding="UTF-8" standalone="no"?>
<svg
   id="Layer_1"
   data-name="Layer 1"
   viewBox="0 0 1080.0063 504.97452"
   version="1.1"
   sodipodi:docname="ContactUs.svg"
   inkscape:version="1.1.2 (0a00cf5339, 2022-02-04)"
   width="1080.0063"
   height="504.97452"
   xmlns:inkscape="http://www.inkscape.org/namespaces/inkscape"
   xmlns:sodipodi="http://sodipodi.sourceforge.net/DTD/sodipodi-0.dtd"
   xmlns="http://www.w3.org/2000/svg"
   xmlns:svg="http://www.w3.org/2000/svg"
   xmlns:rdf="http://www.w3.org/1999/02/22-rdf-syntax-ns#"
   xmlns:cc="http://creativecommons.org/ns#"
   xmlns:dc="http://purl.org/dc/elements/1.1/">
  <sodipodi:namedview
     id="namedview282"
     pagecolor="#9f9f9f"
     bordercolor="#666666"
     borderopacity="1.0"
     inkscape:showpageshadow="2"
     inkscape:pageopacity="0"
     inkscape:pagecheckerboard="true"
     inkscape:deskcolor="#aeaeae"
     showgrid="false"
     inkscape:zoom="0.8169494"
     inkscape:cx="412.51025"
     inkscape:cy="276.63892"
     inkscape:window-width="1920"
     inkscape:window-height="995"
     inkscape:window-x="0"
     inkscape:window-y="0"
     inkscape:window-maximized="1"
     inkscape:current-layer="Layer_1"
     inkscape:pageshadow="2" />
  <defs
     id="defs262">
    <rect
       x="647.95081"
       y="499.85645"
       width="774.08575"
       height="156.60539"
       id="rect444" />
    <style
       id="style260">.cls-1{fill:#fff;}</style>
    <rect
       x="647.95081"
       y="499.85645"
       width="605.8703"
       height="169.03038"
       id="rect444-6" />
  </defs>
  <title
     id="title264">URY-Plain-WithSpace-White</title>
  <g
     id="Layer_2"
     data-name="Layer 2"
     transform="translate(-164.4468,-164.7)">
    <path
       class="cls-1"
       d="m 352.55,164.7 c 0,0 -189,80.4 -188.1,226.7 0.9,151 188.1,226.4 188.1,226.4 0,0 -111.55,-106.3 -111.55,-226.5 0,-139.7 111.55,-226.6 111.55,-226.6 z"
       id="path266" />
    <path
       class="cls-1"
       d="m 421.85,216.1 c 0,0 -146.4,62.1 -145.6,175.2 0.6,116.6 145.6,174.9 145.6,174.9 0,0 -86.1,-82.2 -86.1,-175.2 -0.2,-107.9 86.1,-174.9 86.1,-174.9 z"
       id="path268" />
    <path
       class="cls-1"
       d="m 1056.35,164.7 c 0,0 189,80.4 188.1,226.7 -0.9,151 -188.1,226.4 -188.1,226.4 0,0 111.3,-106.3 111.3,-226.6 0.2,-139.6 -111.3,-226.5 -111.3,-226.5 z"
       id="path270" />
    <path
       class="cls-1"
       d="m 987,216.1 c 0,0 146.4,62.1 145.6,175.2 C 1132,507.9 987,566.2 987,566.2 c 0,0 86.1,-82.2 86.1,-175.2 C 1073.35,283.1 987,216.1 987,216.1 Z"
       id="path272" />
  </g>
  <path
     class="cls-1"
     d="m 323.5032,130.7 v 83.8 a 20,20 0 0 0 0.8,3.5 c 0.5,1.8 1.1,3.9 1.7,6 a 61.71,61.71 0 0 0 2,6.5 c 0.8,2.1 1.2,3.6 1.7,4.7 a 35.89,35.89 0 0 0 6.9,10.7 37.21,37.21 0 0 0 9.5,6.9 43,43 0 0 0 11.3,3.8 63.84,63.84 0 0 0 12.2,1.2 c 11.2,0 20.1,-2.1 26.7,-6.5 6.6,-4.4 12.2,-11.9 16.9,-22.8 0.2,-0.5 0.5,-1.1 0.8,-2 a 6.74,6.74 0 0 0 0.9,-2.6 c 0.3,-0.9 0.5,-1.8 0.8,-2.6 a 3.64,3.64 0 0 0 0.3,-1.4 v -89.1 h 35 v 94.1 c 0,0.3 -0.2,0.8 -0.3,1.5 -0.1,0.7 -0.3,1.5 -0.6,2.4 a 13.78,13.78 0 0 0 -0.6,2.6 14.33,14.33 0 0 1 -0.5,2 99.71,99.71 0 0 1 -11.3,25.7 78,78 0 0 1 -17.2,19.3 72.4,72.4 0 0 1 -22.7,12.4 85.85,85.85 0 0 1 -57.1,-1 86.76,86.76 0 0 1 -26.3,-15.1 79.41,79.41 0 0 1 -18.9,-23.3 62.06,62.06 0 0 1 -7.3,-30.1 v -90.8 z"
     id="path275" />
  <path
     class="cls-1"
     d="m 462.1032,212.9 a 84.77,84.77 0 0 1 5.3,-29 91.19,91.19 0 0 1 14.8,-26.4 76.18,76.18 0 0 1 22.7,-19.2 58.46,58.46 0 0 1 29,-7.4 h 92.3 v 36.9 h -94.2 a 20.82,20.82 0 0 0 -11.8,4.1 57.9,57.9 0 0 0 -10.7,9.8 62.73,62.73 0 0 0 -7.9,12.5 29.84,29.84 0 0 0 -3,12.2 v 88.8 h -36.7 v -82.3 z"
     id="path277" />
  <path
     class="cls-1"
     d="m 671.3032,285.1 a 96.89,96.89 0 0 1 -20.5,-15.7 81.72,81.72 0 0 1 -14.7,-20.8 57,57 0 0 1 -5.6,-25.2 v -92.6 h 35 v 83.8 a 25,25 0 0 0 0.9,6.2 43.4,43.4 0 0 0 2.4,6.9 c 1.1,2.4 2,4.7 3.2,6.8 1.2,2.1 2.1,4.1 3,5.7 a 33,33 0 0 0 7.1,8.8 32.63,32.63 0 0 0 8.9,5.4 42,42 0 0 0 10.3,2.6 81.4,81.4 0 0 0 11,0.8 c 9.8,0 18.1,-2 25.1,-6 7,-4 12.4,-10.6 16.2,-19.9 a 32.72,32.72 0 0 0 1.2,-3.2 38.61,38.61 0 0 0 1.5,-3.9 c 0.4,-1.3 0.9,-2.4 1.2,-3.3 a 10.43,10.43 0 0 0 0.5,-1.7 v -89.1 h 35 v 95.9 a 36.07,36.07 0 0 1 -1.4,9.1 67.18,67.18 0 0 1 -3.5,9.8 c -1.4,3.3 -2.9,6.3 -4.5,9.4 -1.7,2.9 -3.2,5.4 -4.5,7.6 a 55.54,55.54 0 0 1 -20.2,19.8 130.34,130.34 0 0 1 -26,11.3 l -2.7,1.7 v 63.3 h -35.8 v -63.4 a 124.81,124.81 0 0 1 -23.1,-10.1 z"
     id="path279" />
  <metadata
     id="metadata334">
    <rdf:RDF>
      <cc:Work
         rdf:about="">
        <dc:title>URY-Plain-WithSpace-White</dc:title>
      </cc:Work>
    </rdf:RDF>
  </metadata>
  <g
     aria-label="Contact Us"
     transform="translate(-540.04576,-142.24387)"
     id="text442"
     style="font-weight:600;font-size:113.333px;line-height:1.25;font-family:Raleway;-inkscape-font-specification:'Raleway Semi-Bold';text-align:end;white-space:pre;shape-inside:url(#rect444);fill:#ffffff">
    <path
       d="m 853.22,535.20122 q -9.85997,0 -15.07328,7.36664 -5.21332,7.36665 -5.21332,20.17328 0,12.91996 4.75998,20.05994 4.87332,7.02665 15.52662,7.02665 4.98666,0 9.85998,-1.13333 4.98665,-1.13333 10.76663,-3.17333 v 14.39329 q -5.32665,2.15333 -10.53997,3.17333 -5.21332,1.01999 -11.6733,1.01999 -12.46663,0 -20.6266,-5.09998 -8.04665,-5.21332 -11.89997,-14.50663 -3.85332,-9.40663 -3.85332,-21.87326 0,-12.23997 4.41999,-21.64661 4.41998,-9.40664 12.80663,-14.73329 8.49997,-5.32665 20.73993,-5.32665 6.00665,0 12.0133,1.58666 6.11998,1.47333 11.6733,4.07999 l -5.55332,13.93996 q -4.53332,-2.15333 -9.17997,-3.73999 -4.53332,-1.58666 -8.95331,-1.58666 z"
       style="font-weight:bold;font-family:Gotham;-inkscape-font-specification:'Gotham, Bold'"
       id="path10304" />
    <path
       d="m 945.9263,571.92111 q 0,15.41329 -8.15998,23.79993 -8.04664,8.38664 -21.9866,8.38664 -8.61331,0 -15.41329,-3.73999 -6.68664,-3.73998 -10.53996,-10.87996 -3.85333,-7.25332 -3.85333,-17.56662 0,-15.41329 8.04665,-23.6866 8.04664,-8.27331 22.09993,-8.27331 8.72664,0 15.41329,3.73999 6.68665,3.73999 10.53997,10.87997 3.85332,7.02665 3.85332,17.33995 z m -42.72654,0 q 0,9.17997 2.94666,13.93996 3.05999,4.64665 9.85997,4.64665 6.68665,0 9.6333,-4.64665 3.05999,-4.75999 3.05999,-13.93996 0,-9.17997 -3.05999,-13.71329 -2.94665,-4.64665 -9.74663,-4.64665 -6.68665,0 -9.74664,4.64665 -2.94666,4.53332 -2.94666,13.71329 z"
       style="font-weight:bold;font-family:Gotham;-inkscape-font-specification:'Gotham, Bold'"
       id="path10306" />
    <path
       d="m 994.99944,539.9612 q 9.97326,0 15.97996,5.43999 6.0066,5.32665 6.0066,17.22662 v 40.34654 h -16.8866 v -36.15322 q 0,-6.68665 -2.37997,-9.97331 -2.37999,-3.39999 -7.59331,-3.39999 -7.70664,0 -10.53997,5.32665 -2.83332,5.21332 -2.83332,15.07329 v 29.12658 h -16.88662 v -61.87982 h 12.91996 l 2.26666,7.93332 h 0.90666 q 2.94666,-4.75999 8.04665,-6.91332 5.21332,-2.15333 10.9933,-2.15333 z"
       style="font-weight:bold;font-family:Gotham;-inkscape-font-specification:'Gotham, Bold'"
       id="path10308" />
    <path
       d="m 1060.3925,590.62106 q 2.8333,0 5.44,-0.56667 2.6067,-0.56666 5.2133,-1.35999 v 12.57996 q -2.72,1.13333 -6.8,1.92666 -3.9666,0.90666 -8.7266,0.90666 -5.5533,0 -9.9733,-1.81332 -4.3067,-1.81333 -6.9133,-6.23332 -2.4933,-4.53332 -2.4933,-12.46663 v -29.80658 h -8.0467 v -7.13998 l 9.2933,-5.66665 4.8733,-13.03329 h 10.7667 v 13.14662 h 17.3399 v 12.6933 h -17.3399 v 29.80658 q 0,3.51332 2.04,5.32665 2.04,1.7 5.3266,1.7 z"
       style="font-weight:bold;font-family:Gotham;-inkscape-font-specification:'Gotham, Bold'"
       id="path10310" />
    <path
       d="m 1108.8988,539.84787 q 12.4667,0 19.04,5.43999 6.6866,5.32665 6.6866,16.43328 v 41.25321 h -11.7866 l -3.2867,-8.38664 h -0.4533 q -3.9667,4.98665 -8.3866,7.25331 -4.42,2.26666 -12.1267,2.26666 -8.2733,0 -13.7133,-4.75998 -5.44,-4.87332 -5.44,-14.84663 0,-9.85997 6.9134,-14.50662 6.9133,-4.75999 20.7399,-5.21332 l 10.7666,-0.34 v -2.71999 q 0,-4.87332 -2.6066,-7.13998 -2.4934,-2.26666 -7.0267,-2.26666 -4.5333,0 -8.8399,1.36 -4.3067,1.24666 -8.6134,3.17332 l -5.5533,-11.44663 q 4.9867,-2.60666 10.9933,-4.07999 6.12,-1.47333 12.6933,-1.47333 z m 2.38,34.6799 q -8.16,0.22667 -11.3333,2.94666 -3.1733,2.71999 -3.1733,7.13998 0,3.85332 2.2667,5.55331 2.2666,1.58667 5.8933,1.58667 5.44,0 9.1799,-3.17333 3.74,-3.28665 3.74,-9.17997 v -5.09999 z"
       style="font-weight:bold;font-family:Gotham;-inkscape-font-specification:'Gotham, Bold'"
       id="path10312" />
    <path
       d="m 1177.1251,604.10768 q -13.8266,0 -21.4199,-7.59331 -7.48,-7.70664 -7.48,-24.13993 0,-11.3333 3.8533,-18.47328 3.8533,-7.13997 10.6533,-10.53997 6.9133,-3.39999 15.8666,-3.39999 6.3467,0 10.9933,1.24667 4.76,1.24666 8.2733,2.94666 l -4.9866,13.03329 q -3.9667,-1.58666 -7.48,-2.60666 -3.4,-1.01999 -6.8,-1.01999 -13.1466,0 -13.1466,18.69994 0,9.29331 3.4,13.71329 3.5133,4.41999 9.7466,4.41999 5.3267,0 9.4067,-1.36 4.08,-1.47332 7.9333,-3.96665 v 14.39329 q -3.8533,2.49333 -8.16,3.51332 -4.1933,1.13333 -10.6533,1.13333 z"
       style="font-weight:bold;font-family:Gotham;-inkscape-font-specification:'Gotham, Bold'"
       id="path10314" />
    <path
       d="m 1236.2849,590.62106 q 2.8333,0 5.44,-0.56667 2.6067,-0.56666 5.2133,-1.35999 v 12.57996 q -2.72,1.13333 -6.8,1.92666 -3.9666,0.90666 -8.7266,0.90666 -5.5533,0 -9.9733,-1.81332 -4.3067,-1.81333 -6.9133,-6.23332 -2.4934,-4.53332 -2.4934,-12.46663 v -29.80658 h -8.0466 v -7.13998 l 9.2933,-5.66665 4.8733,-13.03329 h 10.7667 v 13.14662 h 17.3399 v 12.6933 h -17.3399 v 29.80658 q 0,3.51332 2.04,5.32665 2.04,1.7 5.3266,1.7 z"
       style="font-weight:bold;font-family:Gotham;-inkscape-font-specification:'Gotham, Bold'"
       id="path10316" />
    <path
       d="m 1356.0775,574.41444 q 0,8.38664 -3.74,15.18662 -3.6266,6.68665 -11.1066,10.6533 -7.3667,3.85332 -18.7,3.85332 -16.0933,0 -24.4799,-8.15997 -8.3866,-8.27331 -8.3866,-21.75994 v -52.13318 h 17.1132 v 49.52652 q 0,9.97331 4.08,14.05329 4.08,4.07999 12.1267,4.07999 8.3866,0 12.1266,-4.41998 3.8533,-4.41999 3.8533,-13.82663 v -49.41319 h 17.1133 z"
       style="font-weight:bold;font-family:Gotham;-inkscape-font-specification:'Gotham, Bold'"
       id="path10318" />
    <path
       d="m 1417.7305,584.61441 q 0,9.40664 -6.6866,14.50662 -6.5734,4.98665 -19.72,4.98665 -6.46,0 -11.1066,-0.90666 -4.6467,-0.79333 -9.2933,-2.71999 v -13.93996 q 4.9866,2.26666 10.7666,3.73999 5.78,1.47333 10.2,1.47333 4.9866,0 7.0266,-1.47333 2.1533,-1.47333 2.1533,-3.85332 0,-1.58667 -0.9066,-2.83333 -0.7933,-1.24666 -3.6267,-2.83332 -2.8333,-1.58667 -8.8399,-4.07999 -5.78,-2.49333 -9.52,-4.87332 -3.74,-2.49333 -5.5533,-5.89332 -1.8134,-3.51332 -1.8134,-8.72664 0,-8.61331 6.6867,-12.91996 6.6866,-4.30666 17.7933,-4.30666 5.7799,0 10.9933,1.13333 5.2133,1.13333 10.7666,3.73999 l -5.1,12.12664 q -4.5333,-1.92667 -8.6133,-3.17333 -4.08,-1.35999 -8.2733,-1.35999 -7.48,0 -7.48,4.07998 0,1.47333 0.9067,2.72 1.02,1.13333 3.74,2.49332 2.8333,1.36 8.2733,3.62666 5.3266,2.15332 9.18,4.53332 3.8533,2.26666 5.8933,5.77998 2.1533,3.39999 2.1533,8.95331 z"
       style="font-weight:bold;font-family:Gotham;-inkscape-font-specification:'Gotham, Bold'"
       id="path10320" />
  </g>
</svg>
