<svg xmlns="http://www.w3.org/2000/svg" viewBox="0 0 1920 1080"><defs><clipPath id="a"><path transform="rotate(90 963 542.4)" style="fill:none" d="M419.3-421.1h1087.3V1506H419.3z"/></clipPath><style>.b{fill:#161616}.h{fill:#f96cdf}.i{fill:#fff}</style></defs><path class="b" d="M-22.9-27.1H1943v1134.2H-22.9z"/><g style="clip-path:url(#a)"><g style="opacity:.1"><path d="m281.5-845.6-702.1 1893.5M360.9-815.6l-702.2 1893.5M440.2-785.7-262 1107.9M519.5-755.7l-702.1 1893.6M598.9-725.7l-702.2 1893.6M678.2-695.7-24 1197.9M757.5-665.7 55.4 1227.9M836.9-635.7 134.7 1257.9M916.2-605.7 214 1287.9M995.5-575.7 293.4 1317.9m781.5-1863.6L372.7 1347.9m781.5-1863.6L452 1377.9m781.5-1863.6L531.4 1407.9m781.5-1863.6L610.7 1437.9m781.5-1863.6L690 1467.9m781.5-1863.6L769.4 1497.9m781.5-1863.6L848.7 1527.9m781.5-1863.6L928 1557.9m781.5-1863.6-702.1 1893.6m781.5-1863.6-702.2 1893.6m781.5-1863.6L1166 1647.9m781.5-1863.6-702.1 1893.6m781.5-1863.6-702.2 1893.6m781.5-1863.6L1404 1737.9m781.5-1863.6-702.1 1893.6M2264.9-95.7l-702.2 1893.6M2344.2-65.7 1642 1827.9" style="stroke-dasharray:12.06 12.06;stroke:#fff;stroke-width:3px;stroke-miterlimit:10;fill:none"/><path d="M2344.3 5.5 238-775.5M2314.2 84.8l-2106.3-781m2076.3 860.3-2106.3-781m2076.2 860.4L147.8-537.6m2076.3 860.4L117.8-458.3M2194 402.1 87.7-379M2164 481.4 57.6-299.7m2076.3 860.4L27.6-220.3M2103.9 640-2.5-141m2076.3 860.3L-32.5-61.7m2076.3 860.3L-62.6 17.6M2013.7 878-92.6 96.9m2076.2 860.4L-122.7 176.2m2076.3 860.4L-152.7 255.5m2076.2 860.4L-182.8 334.8m2076.3 860.4L-212.8 414.1m2076.2 860.4-2106.3-781m2076.3 860.3-2106.3-781m2076.2 860.3L-303 652.1m2076.3 860.4L-333.1 731.4m2076.3 860.4L-363.1 810.7m2076.3 860.4L-393.2 890m2076.3 860.4L-423.2 969.3M1653 1829.7l-2106.3-781" style="stroke-dasharray:11.98 11.98;stroke:#fff;stroke-width:3px;stroke-miterlimit:10;fill:none"/></g></g><path style="stroke:#161616;stroke-width:18px;fill:#f96cdf;stroke-miterlimit:10" d="M1351.6 735.7h575.3V1036h-575.3z"/><path class="h" d="M122.8-11.5-9.9 121.1V-11.5h132.7z"/><path class="b" d="m1543.3 775.2-25.2-14.6v-6.2a17.1 17.1 0 0 0-.8-5.1c-3.2-10.8-16.6-18.6-31.9-18.6a40.6 40.6 0 0 0-4.3.2 41.8 41.8 0 0 0-10.4 2.4l-21-12.2v-5.8a17.3 17.3 0 0 0-.8-5.2c-3.3-10.7-16.6-18.5-32-18.5a42 42 0 0 0-3.5.1c-14 1.1-25.3 8.5-28.3 18.4a16.9 16.9 0 0 0-.7 4L1350 735a44.8 44.8 0 0 0-8.3-.8 42.5 42.5 0 0 0-7.2.6l-1.9.4-1 .2-.5.1-.5.1-.9.3-1 .3-1 .3-.5.2-.9.3-.6.3c-.3 0-.7.2-1 .4l-1.1.6h-.2l-1.1.6a14.6 14.6 0 0 0-1.4.8l-1 .6-2 1.3-1.5 1.3-.3.3a15.5 15.5 0 0 0-1.4 1.4l-.7.7-.1.2-.2.2a18.9 18.9 0 0 0-2.9 4.6 20 20 0 0 0-1 2.6 17.2 17.2 0 0 0-.7 5v2.1l-27.7 16.8-3.5 2.8-4.3 3.5v106.7l133 76.9 3.8 2.1 3.6-2.1 133-81V777.3Z"/><path class="i" d="M1414.7 862.8v94l124.3-75.7v-93.8l-124.3 75.5zm-45.3-21-4.7-2.7-.8-.5-42-24.2 42 24.2-82.2-47.5v94l124.3 71.8v-94l-34.3-19.8-2.3-1.3zm-27.7-49.5c13.3 0 24.6-7.2 24.6-15.7v-2c-6 4.8-14.8 7.8-24.6 7.8s-18.6-3-24.6-7.8v2c0 8.5 11.3 15.7 24.6 15.7Zm-23.7-30.5c0 .4.2.7.4 1l.4.7.3.5c3.8 5.6 12.6 9.6 22.6 9.6s18.8-4 22.6-9.7a10.8 10.8 0 0 0 2-6 9.2 9.2 0 0 0-.4-2.7c-1.5-5.2-7.1-9.5-14.5-11.6a35.3 35.3 0 0 0-9.7-1.3 35 35 0 0 0-5.8.5c-.6 0-1 .2-1.6.3l-1.5.3-.9.3-1 .3a3 3 0 0 0-.5.1 4.6 4.6 0 0 0-.5.2 6.2 6.2 0 0 0-.7.3l-.5.2a5.2 5.2 0 0 0-.7.3l-1.1.5-1 .5a6 6 0 0 0-.7.4l-1 .6a16.6 16.6 0 0 0-1.4 1l-1.2 1a12.8 12.8 0 0 0-1.7 1.7 3.5 3.5 0 0 0-.5.6 7.2 7.2 0 0 0-.7 1l-.5 1a10.7 10.7 0 0 0-.6 1.7 9.2 9.2 0 0 0-.4 2.8 9.8 9.8 0 0 0 .4 2.8c0 .4.2.8.3 1.1Zm142.8 9.2v2c0 8.6 11.3 15.8 24.6 15.8s24.6-7.2 24.6-15.7v-2c-6 4.8-14.7 7.8-24.6 7.8s-18.5-3-24.6-7.8Zm0-16.6a10.7 10.7 0 0 0 2 6c3.8 5.6 12.7 9.7 22.7 9.7 8.4 0 16-3 20.5-7.2a13.7 13.7 0 0 0 1.1-1.2l1-1.3a11 11 0 0 0 2-5.3v-.7a9.2 9.2 0 0 0-.5-2.8c-2.1-7.2-12.3-12.9-24.1-12.9a30.9 30.9 0 0 0-3.5.2 31.6 31.6 0 0 0-11.8 3.4 24.9 24.9 0 0 0-3.1 1.8l-.4.3-1.2 1a14.9 14.9 0 0 0-1.1 1 15.6 15.6 0 0 0-1.8 2.3l-.5.8a12.9 12.9 0 0 0-.8 2 9.2 9.2 0 0 0-.5 2.9Z"/><path class="i" d="M1518.8 770.4v2.7c0 13.7-14.6 24.4-33.4 24.4s-33.3-10.7-33.3-24.4v-18.7a18.2 18.2 0 0 1 .2-2.8c.8-5.6 4.2-10.6 9.2-14.4l-11.2-6.4v3.1c0 13.7-14.6 24.4-33.3 24.4s-33.4-10.7-33.4-24.4V724l-22.7 13.8c7.6 3.9 12.9 10 14 17.3a17 17 0 0 1 .2 2.8v18.7c0 13.7-14.7 24.4-33.4 24.4s-33.4-10.7-33.4-24.4v-6.8l-22.3 13.6 31.6 18.3L1339 814l22.2 12.8 49.1 28.4 124.4-75.7Zm-75.3 45.4c0 13.7-14.6 24.4-33.3 24.4s-33.4-10.7-33.4-24.4V797a17 17 0 0 1 .2-2.8c1.8-12.3 15.7-21.6 33.2-21.6s31.3 9.3 33.1 21.6a17 17 0 0 1 .2 2.8Z"/><path class="i" d="M1385.6 813.8v2c0 8.5 11.2 15.6 24.6 15.6s24.5-7.1 24.5-15.6v-2c-6 4.8-14.7 7.7-24.5 7.7s-18.6-3-24.6-7.7Zm45.7-24.5a10 10 0 0 0-.6-.6 19.5 19.5 0 0 0-3.5-2.8 5.2 5.2 0 0 0-.5-.3l-1-.5-1.5-.8-1.5-.6a25.9 25.9 0 0 0-3.5-1.1l-1.2-.3-1.4-.3a15 15 0 0 0-1.8-.3h-.6l-1.5-.2h-2.5c-11.9 0-22.1 5.7-24.2 12.9a9.4 9.4 0 0 0-.4 2.8v.7a5.2 5.2 0 0 0 0 .7 7 7 0 0 0 .3 1.3 5.9 5.9 0 0 0 .2.7 4.4 4.4 0 0 0 .3.6 10.7 10.7 0 0 0 .6 1.3l.1.1.3.6.8 1a16.1 16.1 0 0 0 1.9 2 19.5 19.5 0 0 0 2.3 1.6h-.1a30.2 30.2 0 0 0 12.3 4.6 37.7 37.7 0 0 0 5.5.4 37.2 37.2 0 0 0 5.5-.4 32.1 32.1 0 0 0 9.3-2.9l1-.6h.1l1-.5.2-.1 1-.7a17.8 17.8 0 0 0 1.8-1.5l1-1a14.2 14.2 0 0 0 1.7-2 10.6 10.6 0 0 0 2-6 9.4 9.4 0 0 0-.5-2.7 12.6 12.6 0 0 0-2.9-5.1Zm-14.3-39.7c13.3 0 24.6-7.2 24.6-15.7v-2c-6 4.8-14.8 7.8-24.6 7.8s-18.5-3-24.6-7.8v2c0 8.5 11.2 15.7 24.6 15.7Zm-23.7-30.2v.2a8.3 8.3 0 0 0 .6 1l.4.7c3.8 5.6 12.7 9.6 22.7 9.6a30 30 0 0 0 20.7-7.4 12.2 12.2 0 0 0 1.9-2.2 9 9 0 0 0 .7-1.1 8 8 0 0 0 .5-1.2l.2-.6.2-.6a11.8 11.8 0 0 0 .3-1.5v-1a9.5 9.5 0 0 0-.4-2.8c-2.1-7.2-12.3-12.9-24.2-12.9l-2.9.1c-10.5.9-19.3 6.1-21.2 12.8a9.5 9.5 0 0 0-.4 2.8 9.6 9.6 0 0 0 .5 3.1 7 7 0 0 0 .4 1Z"/><path class="h" d="m1834.7 884.9-25.2-14.6v-6.2a17.5 17.5 0 0 0-.8-5.1c-3.3-10.8-16.6-18.6-31.9-18.6a38.3 38.3 0 0 0-4.3.2 41.4 41.4 0 0 0-10.5 2.3l-21-12.1v-5.9a17.3 17.3 0 0 0-.8-5.1c-3.2-10.8-16.6-18.6-31.8-18.6a42 42 0 0 0-3.6.2c-14 1-25.3 8.5-28.3 18.4a17.4 17.4 0 0 0-.7 4l-34.4 20.9a44 44 0 0 0-8.3-.8 42.3 42.3 0 0 0-7.2.6l-1.9.3-1 .3h-.5l-.5.2-.9.3c-.4 0-.8.2-1 .3l-1 .3-.5.2-.9.3-.6.3c-.3 0-.7.2-1 .4l-1.2.5-.1.1-1.1.6a11.6 11.6 0 0 0-1.4.8l-1 .6-1.9 1.3-1.6 1.3-.3.3a17.2 17.2 0 0 0-1.4 1.4l-.6.7-.2.1-.1.3a18 18 0 0 0-3 4.5 18.6 18.6 0 0 0-1 2.6 17.2 17.2 0 0 0-.7 5v2l-27.6 16.8-3.5 2.8-4.4 3.6v106.7l133 77 3.7 2 3.6-2.1 133-81V887Z"/><path class="b" d="M1706.1 972.5v93.9l124.2-75.6V897l-124.2 75.5zm-45.3-21.1-4.7-2.7-.8-.5-42-24.2 42 24.2-82.2-47.5v94.1l124.2 71.8v-94l-34.2-19.8-2.3-1.4zM1633 902c13.4 0 24.7-7.2 24.7-15.7v-2c-6.1 4.8-14.8 7.8-24.6 7.8s-18.6-3-24.6-7.8v2c0 8.5 11.3 15.7 24.6 15.7Zm-23.7-30.5.5 1a6.1 6.1 0 0 0 .3.7l.3.4c3.8 5.7 12.6 9.7 22.7 9.7s18.8-4 22.6-9.7a10.8 10.8 0 0 0 2-6 9.3 9.3 0 0 0-.5-2.8c-1.5-5-7-9.4-14.4-11.5a35.3 35.3 0 0 0-9.7-1.3 33.8 33.8 0 0 0-5.9.5l-1.5.2-1.5.4-1 .2-1 .3-.4.2a5.5 5.5 0 0 0-.5.2 5.1 5.1 0 0 0-.7.2l-.5.2-.7.3-1.1.5-1 .6a5.3 5.3 0 0 0-.7.4l-1 .5-1.4 1-1.2 1a.4.4 0 0 1-.1.2 10.5 10.5 0 0 0-1 .9l-.7.8a4 4 0 0 0-.5.5s0 0 0 .1a7.5 7.5 0 0 0-.7 1l-.5 1a10.6 10.6 0 0 0-.6 1.6 9.3 9.3 0 0 0-.4 2.8 9.7 9.7 0 0 0 .4 2.8l.4 1.1Zm142.9 9.3v2c0 8.5 11.3 15.6 24.6 15.6s24.6-7.2 24.6-15.6v-2c-6 4.8-14.8 7.7-24.6 7.7s-18.5-3-24.6-7.7Zm0-16.8a10.6 10.6 0 0 0 2 6c3.8 5.7 12.6 9.7 22.7 9.7 8.4 0 16-2.8 20.4-7.1l1.2-1.2 1-1.3a11 11 0 0 0 2-5.3v-.7a9.3 9.3 0 0 0-.5-2.8c-2.1-7.2-12.3-12.9-24.1-12.9a31 31 0 0 0-3.5.2 31.5 31.5 0 0 0-11.8 3.4 26.3 26.3 0 0 0-3.1 1.8 17 17 0 0 0-2.7 2.3 15 15 0 0 0-1.8 2.3l-.5.8a12 12 0 0 0-.8 2 9.3 9.3 0 0 0-.5 2.9Z"/><path class="b" d="M1810.2 880v2.7c0 13.7-14.7 24.5-33.4 24.5s-33.4-10.8-33.4-24.5v-18.6a17 17 0 0 1 .2-2.8c.9-5.6 4.2-10.6 9.2-14.4l-11-6.4v3c0 13.8-14.7 24.5-33.4 24.5s-33.4-10.7-33.4-24.4v-9.9l-22.7 13.8c7.7 3.9 12.9 10.1 14 17.3a17 17 0 0 1 .2 2.8v18.7c0 13.7-14.6 24.4-33.3 24.4s-33.4-10.7-33.4-24.4v-6.8l-22.3 13.6 31.5 18.3 21.3 12.3 22.2 12.8 49 28.4 124.5-75.7Zm-75.3 45.4c0 13.7-14.7 24.4-33.4 24.4s-33.3-10.7-33.3-24.4v-18.6a18 18 0 0 1 .2-2.8c1.8-12.4 15.7-21.7 33.2-21.7s31.3 9.3 33.1 21.7a18 18 0 0 1 .2 2.8Z"/><path class="b" d="M1677 923.5v2c0 8.5 11.3 15.6 24.6 15.6s24.6-7.2 24.6-15.6v-2c-6 4.7-14.8 7.7-24.6 7.7s-18.6-3-24.6-7.7Zm45.7-24.5-.6-.6a20 20 0 0 0-3.5-2.8l-.5-.3-1-.5-1.5-.8a15.7 15.7 0 0 0-1.5-.6 25.9 25.9 0 0 0-3.5-1.1l-1.3-.3a12 12 0 0 0-1.3-.3l-1.8-.3h-.6l-1.5-.2h-2.6c-11.8 0-22 5.7-24.2 12.9a9.3 9.3 0 0 0-.4 2.8v.7l.1.6a7.3 7.3 0 0 0 .3 1.4l.2.7a3.4 3.4 0 0 0 .3.6 10 10 0 0 0 .6 1.3 1.5 1.5 0 0 0 0 .1l.4.6.8 1a16.3 16.3 0 0 0 1.9 2 19.6 19.6 0 0 0 2.2 1.7 30.3 30.3 0 0 0 12.3 4.4 37.7 37.7 0 0 0 5.5.5 37.2 37.2 0 0 0 5.5-.5 32.4 32.4 0 0 0 9.3-2.8l1.1-.6 1-.6a.6.6 0 0 1 .3-.1l1-.7a18 18 0 0 0 1.8-1.4l1-1a15 15 0 0 0 1.7-2 10.7 10.7 0 0 0 2-6 9.3 9.3 0 0 0-.5-2.8 12.7 12.7 0 0 0-3-5Zm-14.4-39.8c13.4 0 24.6-7.1 24.6-15.6v-2c-6 4.8-14.7 7.7-24.6 7.7s-18.5-3-24.5-7.7v2c0 8.5 11.2 15.6 24.5 15.6Zm-23.6-30.2a1.6 1.6 0 0 0 0 .2l.6 1 .4.7c3.8 5.7 12.6 9.7 22.7 9.7a30 30 0 0 0 20.7-7.4 12.2 12.2 0 0 0 1.9-2.3 12.2 12.2 0 0 0 1.2-2.2 5.5 5.5 0 0 0 .2-.6l.2-.6a10.3 10.3 0 0 0 .3-1.5v-1a9.3 9.3 0 0 0-.4-2.9c-2.2-7.2-12.4-12.8-24.2-12.8l-2.9.1c-10.6.8-19.3 6.1-21.3 12.7a9.3 9.3 0 0 0-.4 2.8 9.6 9.6 0 0 0 .5 3.2 8.6 8.6 0 0 0 .5 1Z"/></svg>
