<?xml version="1.0" encoding="UTF-8" standalone="no"?>
<svg
   id="Layer_1"
   data-name="Layer 1"
   viewBox="0 0 1080.0063 504.97452"
   version="1.1"
   sodipodi:docname="GetInvolved.svg"
   inkscape:version="1.1.2 (0a00cf5339, 2022-02-04)"
   width="1080.0063"
   height="504.97452"
   xmlns:inkscape="http://www.inkscape.org/namespaces/inkscape"
   xmlns:sodipodi="http://sodipodi.sourceforge.net/DTD/sodipodi-0.dtd"
   xmlns="http://www.w3.org/2000/svg"
   xmlns:svg="http://www.w3.org/2000/svg"
   xmlns:rdf="http://www.w3.org/1999/02/22-rdf-syntax-ns#"
   xmlns:cc="http://creativecommons.org/ns#"
   xmlns:dc="http://purl.org/dc/elements/1.1/">
  <sodipodi:namedview
     id="namedview282"
     pagecolor="#9f9f9f"
     bordercolor="#666666"
     borderopacity="1.0"
     inkscape:showpageshadow="2"
     inkscape:pageopacity="0"
     inkscape:pagecheckerboard="true"
     inkscape:deskcolor="#aeaeae"
     showgrid="false"
     inkscape:zoom="0.57767046"
     inkscape:cx="450.0836"
     inkscape:cy="216.38635"
     inkscape:window-width="1920"
     inkscape:window-height="995"
     inkscape:window-x="0"
     inkscape:window-y="0"
     inkscape:window-maximized="1"
     inkscape:current-layer="Layer_1"
     inkscape:pageshadow="2" />
  <defs
     id="defs262">
    <rect
       x="647.95081"
       y="499.85645"
       width="774.08575"
       height="156.60539"
       id="rect444" />
    <style
       id="style260">.cls-1{fill:#fff;}</style>
    <rect
       x="647.95081"
       y="499.85645"
       width="605.8703"
       height="169.03038"
       id="rect444-6" />
  </defs>
  <title
     id="title264">URY-Plain-WithSpace-White</title>
  <g
     id="Layer_2"
     data-name="Layer 2"
     transform="translate(-164.4468,-164.7)">
    <path
       class="cls-1"
       d="m 352.55,164.7 c 0,0 -189,80.4 -188.1,226.7 0.9,151 188.1,226.4 188.1,226.4 0,0 -111.55,-106.3 -111.55,-226.5 0,-139.7 111.55,-226.6 111.55,-226.6 z"
       id="path266" />
    <path
       class="cls-1"
       d="m 421.85,216.1 c 0,0 -146.4,62.1 -145.6,175.2 0.6,116.6 145.6,174.9 145.6,174.9 0,0 -86.1,-82.2 -86.1,-175.2 -0.2,-107.9 86.1,-174.9 86.1,-174.9 z"
       id="path268" />
    <path
       class="cls-1"
       d="m 1056.35,164.7 c 0,0 189,80.4 188.1,226.7 -0.9,151 -188.1,226.4 -188.1,226.4 0,0 111.3,-106.3 111.3,-226.6 0.2,-139.6 -111.3,-226.5 -111.3,-226.5 z"
       id="path270" />
    <path
       class="cls-1"
       d="m 987,216.1 c 0,0 146.4,62.1 145.6,175.2 C 1132,507.9 987,566.2 987,566.2 c 0,0 86.1,-82.2 86.1,-175.2 C 1073.35,283.1 987,216.1 987,216.1 Z"
       id="path272" />
  </g>
  <path
     class="cls-1"
     d="m 323.5032,130.7 v 83.8 a 20,20 0 0 0 0.8,3.5 c 0.5,1.8 1.1,3.9 1.7,6 a 61.71,61.71 0 0 0 2,6.5 c 0.8,2.1 1.2,3.6 1.7,4.7 a 35.89,35.89 0 0 0 6.9,10.7 37.21,37.21 0 0 0 9.5,6.9 43,43 0 0 0 11.3,3.8 63.84,63.84 0 0 0 12.2,1.2 c 11.2,0 20.1,-2.1 26.7,-6.5 6.6,-4.4 12.2,-11.9 16.9,-22.8 0.2,-0.5 0.5,-1.1 0.8,-2 a 6.74,6.74 0 0 0 0.9,-2.6 c 0.3,-0.9 0.5,-1.8 0.8,-2.6 a 3.64,3.64 0 0 0 0.3,-1.4 v -89.1 h 35 v 94.1 c 0,0.3 -0.2,0.8 -0.3,1.5 -0.1,0.7 -0.3,1.5 -0.6,2.4 a 13.78,13.78 0 0 0 -0.6,2.6 14.33,14.33 0 0 1 -0.5,2 99.71,99.71 0 0 1 -11.3,25.7 78,78 0 0 1 -17.2,19.3 72.4,72.4 0 0 1 -22.7,12.4 85.85,85.85 0 0 1 -57.1,-1 86.76,86.76 0 0 1 -26.3,-15.1 79.41,79.41 0 0 1 -18.9,-23.3 62.06,62.06 0 0 1 -7.3,-30.1 v -90.8 z"
     id="path275" />
  <path
     class="cls-1"
     d="m 462.1032,212.9 a 84.77,84.77 0 0 1 5.3,-29 91.19,91.19 0 0 1 14.8,-26.4 76.18,76.18 0 0 1 22.7,-19.2 58.46,58.46 0 0 1 29,-7.4 h 92.3 v 36.9 h -94.2 a 20.82,20.82 0 0 0 -11.8,4.1 57.9,57.9 0 0 0 -10.7,9.8 62.73,62.73 0 0 0 -7.9,12.5 29.84,29.84 0 0 0 -3,12.2 v 88.8 h -36.7 v -82.3 z"
     id="path277" />
  <path
     class="cls-1"
     d="m 671.3032,285.1 a 96.89,96.89 0 0 1 -20.5,-15.7 81.72,81.72 0 0 1 -14.7,-20.8 57,57 0 0 1 -5.6,-25.2 v -92.6 h 35 v 83.8 a 25,25 0 0 0 0.9,6.2 43.4,43.4 0 0 0 2.4,6.9 c 1.1,2.4 2,4.7 3.2,6.8 1.2,2.1 2.1,4.1 3,5.7 a 33,33 0 0 0 7.1,8.8 32.63,32.63 0 0 0 8.9,5.4 42,42 0 0 0 10.3,2.6 81.4,81.4 0 0 0 11,0.8 c 9.8,0 18.1,-2 25.1,-6 7,-4 12.4,-10.6 16.2,-19.9 a 32.72,32.72 0 0 0 1.2,-3.2 38.61,38.61 0 0 0 1.5,-3.9 c 0.4,-1.3 0.9,-2.4 1.2,-3.3 a 10.43,10.43 0 0 0 0.5,-1.7 v -89.1 h 35 v 95.9 a 36.07,36.07 0 0 1 -1.4,9.1 67.18,67.18 0 0 1 -3.5,9.8 c -1.4,3.3 -2.9,6.3 -4.5,9.4 -1.7,2.9 -3.2,5.4 -4.5,7.6 a 55.54,55.54 0 0 1 -20.2,19.8 130.34,130.34 0 0 1 -26,11.3 l -2.7,1.7 v 63.3 h -35.8 v -63.4 a 124.81,124.81 0 0 1 -23.1,-10.1 z"
     id="path279" />
  <metadata
     id="metadata334">
    <rdf:RDF>
      <cc:Work
         rdf:about="">
        <dc:title>URY-Plain-WithSpace-White</dc:title>
      </cc:Work>
    </rdf:RDF>
  </metadata>
  <g
     aria-label="Get Involved"
     transform="translate(-532.04576,-130.24387)"
     id="text442"
     style="font-weight:600;font-size:93.3333px;line-height:1.25;font-family:Raleway;-inkscape-font-specification:'Raleway Semi-Bold';text-align:end;white-space:pre;shape-inside:url(#rect444);fill:#ffffff">
    <path
       d="m 863.90509,547.35047 h 26.41333 v 34.53332 q -5.22667,1.77333 -10.92,2.8 -5.6,1.02666 -12.78666,1.02666 -14.93333,0 -22.95999,-8.77333 -8.02667,-8.77333 -8.02667,-25.57332 0,-10.45333 4.01334,-18.10666 4.10666,-7.65333 11.85333,-11.85333 7.74666,-4.2 18.94665,-4.2 5.32,0 10.45333,1.12 5.13334,1.12 9.33333,2.98667 l -4.66666,11.29333 q -3.08,-1.58667 -7,-2.61334 -3.92,-1.02666 -8.21333,-1.02666 -6.16,0 -10.73333,2.8 -4.48,2.8 -6.99999,7.93333 -2.42667,5.04 -2.42667,11.94666 0,6.53333 1.77333,11.57333 1.77333,5.04 5.6,7.93333 3.82667,2.8 9.98666,2.8 2.98667,0 5.04,-0.28 2.14667,-0.28 3.92,-0.65334 v -13.90666 h -12.6 z"
       id="path2944" />
    <path
       d="m 926.06498,532.88381 q 10.54666,0 16.70666,6.06666 6.16,5.97333 6.16,17.07999 v 6.72 h -32.85332 q 0.18667,5.88 3.45333,9.24 3.36,3.36 9.24,3.36 4.94666,0 8.95999,-0.93334 4.01334,-1.02666 8.30667,-3.07999 v 10.73332 q -3.73333,1.86667 -7.93333,2.70667 -4.10667,0.93333 -9.98667,0.93333 -7.65333,0 -13.53332,-2.8 -5.88,-2.89333 -9.24,-8.67999 -3.36,-5.78667 -3.36,-14.56 0,-8.95999 2.98667,-14.83999 3.08,-5.97333 8.49333,-8.96 5.41333,-2.98666 12.59999,-2.98666 z m 0.0933,9.89333 q -4.01334,0 -6.72,2.61333 -2.61333,2.61333 -3.08,8.12 h 19.50666 q -0.0933,-4.66667 -2.42667,-7.65333 -2.33333,-3.08 -7.27999,-3.08 z"
       id="path2946" />
    <path
       d="m 981.69159,574.60379 q 2.33333,0 4.48,-0.46667 2.14667,-0.46666 4.29333,-1.12 v 10.36 q -2.24,0.93333 -5.6,1.58667 -3.26666,0.74666 -7.18666,0.74666 -4.57333,0 -8.21333,-1.49333 -3.54667,-1.49333 -5.69333,-5.13333 -2.05333,-3.73333 -2.05333,-10.26666 v -24.54666 h -6.62667 v -5.88 l 7.65333,-4.66666 4.01333,-10.73333 h 8.86667 v 10.82666 h 14.27999 v 10.45333 h -14.27999 v 24.54666 q 0,2.89333 1.68,4.38666 1.68,1.4 4.38666,1.4 z"
       id="path2948" />
    <path
       d="m 1051.0379,584.77712 h -30.3333 v -8.02666 l 8.12,-3.73334 v -43.11998 l -8.12,-3.73333 v -8.02666 h 30.3333 v 8.02666 l -8.12,3.73333 v 43.11998 l 8.12,3.73334 z"
       id="path2950" />
    <path
       d="m 1090.2379,532.88381 q 8.2133,0 13.16,4.47999 4.9466,4.38667 4.9466,14.18667 v 33.22665 h -13.9066 V 555.0038 q 0,-5.50667 -1.96,-8.21333 -1.96,-2.8 -6.2533,-2.8 -6.3467,0 -8.68,4.38666 -2.3334,4.29334 -2.3334,12.41333 v 23.98666 h -13.9066 v -50.95998 h 10.64 l 1.8666,6.53333 h 0.7467 q 2.4267,-3.92 6.6267,-5.69333 4.2933,-1.77333 9.0533,-1.77333 z"
       id="path2952" />
    <path
       d="m 1134.7578,584.77712 -19.4133,-50.95998 h 14.56 l 9.8,29.02666 q 0.84,2.61333 1.3067,5.41333 0.56,2.8 0.6533,5.03999 h 0.3733 q 0.28,-5.03999 2.0534,-10.45332 l 9.7999,-29.02666 h 14.56 l -19.4133,50.95998 z"
       id="path2954" />
    <path
       d="m 1222.0243,559.2038 q 0,12.69333 -6.72,19.59999 -6.6266,6.90666 -18.1066,6.90666 -7.0934,0 -12.6934,-3.08 -5.5066,-3.07999 -8.68,-8.95999 -3.1733,-5.97333 -3.1733,-14.46666 0,-12.69333 6.6267,-19.50666 6.6266,-6.81333 18.2,-6.81333 7.1866,0 12.6933,3.08 5.5066,3.07999 8.68,8.95999 3.1733,5.78667 3.1733,14.28 z m -35.1866,0 q 0,7.55999 2.4266,11.47999 2.52,3.82667 8.12,3.82667 5.5067,0 7.9334,-3.82667 2.52,-3.92 2.52,-11.47999 0,-7.56 -2.52,-11.29333 -2.4267,-3.82667 -8.0267,-3.82667 -5.5067,0 -8.0267,3.82667 -2.4266,3.73333 -2.4266,11.29333 z"
       id="path2956" />
    <path
       d="m 1247.4109,584.77712 h -13.9066 v -70.93331 h 13.9066 z"
       id="path2958" />
    <path
       d="m 1274.1041,584.77712 -19.4134,-50.95998 h 14.56 l 9.8,29.02666 q 0.84,2.61333 1.3067,5.41333 0.56,2.8 0.6533,5.03999 h 0.3734 q 0.28,-5.03999 2.0533,-10.45332 l 9.8,-29.02666 h 14.56 l -19.4133,50.95998 z"
       id="path2960" />
    <path
       d="m 1336.0772,532.88381 q 10.5467,0 16.7067,6.06666 6.16,5.97333 6.16,17.07999 v 6.72 h -32.8533 q 0.1866,5.88 3.4533,9.24 3.36,3.36 9.24,3.36 4.9467,0 8.96,-0.93334 4.0133,-1.02666 8.3067,-3.07999 v 10.73332 q -3.7334,1.86667 -7.9334,2.70667 -4.1066,0.93333 -9.9866,0.93333 -7.6534,0 -13.5334,-2.8 -5.88,-2.89333 -9.2399,-8.67999 -3.36,-5.78667 -3.36,-14.56 0,-8.95999 2.9866,-14.83999 3.08,-5.97333 8.4933,-8.96 5.4134,-2.98666 12.6,-2.98666 z m 0.093,9.89333 q -4.0134,0 -6.72,2.61333 -2.6134,2.61333 -3.08,8.12 h 19.5066 q -0.093,-4.66667 -2.4266,-7.65333 -2.3334,-3.08 -7.28,-3.08 z"
       id="path2962" />
    <path
       d="m 1386.3839,585.71045 q -8.4934,0 -13.9067,-6.62666 -5.32,-6.72 -5.32,-19.69333 0,-13.06666 5.4133,-19.78666 5.4134,-6.71999 14.1867,-6.71999 5.5067,0 9.0533,2.14666 3.5467,2.14667 5.6,5.32 h 0.4667 q -0.28,-1.49333 -0.6534,-4.29333 -0.3733,-2.89333 -0.3733,-5.88 v -16.33333 h 13.9067 v 70.93331 h -10.64 l -2.7067,-6.62666 h -0.56 q -2.0533,3.17333 -5.5066,5.41333 -3.4534,2.14666 -8.96,2.14666 z m 4.8533,-11.10666 q 5.7866,0 8.12,-3.36 2.3333,-3.45333 2.4266,-10.26666 v -1.49333 q 0,-7.46667 -2.3333,-11.38667 -2.24,-3.91999 -8.4,-3.91999 -4.5733,0 -7.1866,4.01333 -2.6134,3.92 -2.6134,11.38666 0,7.46666 2.6134,11.29333 2.6133,3.73333 7.3733,3.73333 z"
       id="path2964" />
  </g>
</svg>
