<?xml version="1.0" encoding="UTF-8" standalone="no"?>
<svg
   id="Layer_1"
   data-name="Layer 1"
   viewBox="0 0 1080.0063 504.97452"
   version="1.1"
   sodipodi:docname="OnTap.svg"
   inkscape:version="1.2.2 (b0a8486541, 2022-12-01)"
   width="1080.0063"
   height="504.97452"
   xmlns:inkscape="http://www.inkscape.org/namespaces/inkscape"
   xmlns:sodipodi="http://sodipodi.sourceforge.net/DTD/sodipodi-0.dtd"
   xmlns="http://www.w3.org/2000/svg"
   xmlns:svg="http://www.w3.org/2000/svg"
   xmlns:rdf="http://www.w3.org/1999/02/22-rdf-syntax-ns#"
   xmlns:cc="http://creativecommons.org/ns#"
   xmlns:dc="http://purl.org/dc/elements/1.1/">
  <sodipodi:namedview
     id="namedview282"
     pagecolor="#9f9f9f"
     bordercolor="#666666"
     borderopacity="1.0"
     inkscape:showpageshadow="2"
     inkscape:pageopacity="0"
     inkscape:pagecheckerboard="true"
     inkscape:deskcolor="#aeaeae"
     showgrid="false"
     inkscape:zoom="0.57767046"
     inkscape:cx="283.89889"
     inkscape:cy="218.11744"
     inkscape:window-width="1850"
     inkscape:window-height="1057"
     inkscape:window-x="1990"
     inkscape:window-y="0"
     inkscape:window-maximized="1"
     inkscape:current-layer="Layer_1" />
  <defs
     id="defs262">
    <rect
       x="647.95081"
       y="499.85645"
       width="774.08575"
       height="156.60539"
       id="rect444" />
    <style
       id="style260">.cls-1{fill:#fff;}</style>
    <rect
       x="647.95081"
       y="499.85645"
       width="605.8703"
       height="169.03038"
       id="rect444-6" />
  </defs>
  <title
     id="title264">URY-Plain-WithSpace-White</title>
  <g
     id="Layer_2"
     data-name="Layer 2"
     transform="translate(-164.4468,-164.7)">
    <path
       class="cls-1"
       d="m 352.55,164.7 c 0,0 -189,80.4 -188.1,226.7 0.9,151 188.1,226.4 188.1,226.4 0,0 -111.55,-106.3 -111.55,-226.5 0,-139.7 111.55,-226.6 111.55,-226.6 z"
       id="path266" />
    <path
       class="cls-1"
       d="m 421.85,216.1 c 0,0 -146.4,62.1 -145.6,175.2 0.6,116.6 145.6,174.9 145.6,174.9 0,0 -86.1,-82.2 -86.1,-175.2 -0.2,-107.9 86.1,-174.9 86.1,-174.9 z"
       id="path268" />
    <path
       class="cls-1"
       d="m 1056.35,164.7 c 0,0 189,80.4 188.1,226.7 -0.9,151 -188.1,226.4 -188.1,226.4 0,0 111.3,-106.3 111.3,-226.6 0.2,-139.6 -111.3,-226.5 -111.3,-226.5 z"
       id="path270" />
    <path
       class="cls-1"
       d="m 987,216.1 c 0,0 146.4,62.1 145.6,175.2 C 1132,507.9 987,566.2 987,566.2 c 0,0 86.1,-82.2 86.1,-175.2 C 1073.35,283.1 987,216.1 987,216.1 Z"
       id="path272" />
  </g>
  <path
     class="cls-1"
     d="m 323.5032,130.7 v 83.8 a 20,20 0 0 0 0.8,3.5 c 0.5,1.8 1.1,3.9 1.7,6 a 61.71,61.71 0 0 0 2,6.5 c 0.8,2.1 1.2,3.6 1.7,4.7 a 35.89,35.89 0 0 0 6.9,10.7 37.21,37.21 0 0 0 9.5,6.9 43,43 0 0 0 11.3,3.8 63.84,63.84 0 0 0 12.2,1.2 c 11.2,0 20.1,-2.1 26.7,-6.5 6.6,-4.4 12.2,-11.9 16.9,-22.8 0.2,-0.5 0.5,-1.1 0.8,-2 a 6.74,6.74 0 0 0 0.9,-2.6 c 0.3,-0.9 0.5,-1.8 0.8,-2.6 a 3.64,3.64 0 0 0 0.3,-1.4 v -89.1 h 35 v 94.1 c 0,0.3 -0.2,0.8 -0.3,1.5 -0.1,0.7 -0.3,1.5 -0.6,2.4 a 13.78,13.78 0 0 0 -0.6,2.6 14.33,14.33 0 0 1 -0.5,2 99.71,99.71 0 0 1 -11.3,25.7 78,78 0 0 1 -17.2,19.3 72.4,72.4 0 0 1 -22.7,12.4 85.85,85.85 0 0 1 -57.1,-1 86.76,86.76 0 0 1 -26.3,-15.1 79.41,79.41 0 0 1 -18.9,-23.3 62.06,62.06 0 0 1 -7.3,-30.1 v -90.8 z"
     id="path275" />
  <path
     class="cls-1"
     d="m 462.1032,212.9 a 84.77,84.77 0 0 1 5.3,-29 91.19,91.19 0 0 1 14.8,-26.4 76.18,76.18 0 0 1 22.7,-19.2 58.46,58.46 0 0 1 29,-7.4 h 92.3 v 36.9 h -94.2 a 20.82,20.82 0 0 0 -11.8,4.1 57.9,57.9 0 0 0 -10.7,9.8 62.73,62.73 0 0 0 -7.9,12.5 29.84,29.84 0 0 0 -3,12.2 v 88.8 h -36.7 v -82.3 z"
     id="path277" />
  <path
     class="cls-1"
     d="m 671.3032,285.1 a 96.89,96.89 0 0 1 -20.5,-15.7 81.72,81.72 0 0 1 -14.7,-20.8 57,57 0 0 1 -5.6,-25.2 v -92.6 h 35 v 83.8 a 25,25 0 0 0 0.9,6.2 43.4,43.4 0 0 0 2.4,6.9 c 1.1,2.4 2,4.7 3.2,6.8 1.2,2.1 2.1,4.1 3,5.7 a 33,33 0 0 0 7.1,8.8 32.63,32.63 0 0 0 8.9,5.4 42,42 0 0 0 10.3,2.6 81.4,81.4 0 0 0 11,0.8 c 9.8,0 18.1,-2 25.1,-6 7,-4 12.4,-10.6 16.2,-19.9 a 32.72,32.72 0 0 0 1.2,-3.2 38.61,38.61 0 0 0 1.5,-3.9 c 0.4,-1.3 0.9,-2.4 1.2,-3.3 a 10.43,10.43 0 0 0 0.5,-1.7 v -89.1 h 35 v 95.9 a 36.07,36.07 0 0 1 -1.4,9.1 67.18,67.18 0 0 1 -3.5,9.8 c -1.4,3.3 -2.9,6.3 -4.5,9.4 -1.7,2.9 -3.2,5.4 -4.5,7.6 a 55.54,55.54 0 0 1 -20.2,19.8 130.34,130.34 0 0 1 -26,11.3 l -2.7,1.7 v 63.3 h -35.8 v -63.4 a 124.81,124.81 0 0 1 -23.1,-10.1 z"
     id="path279" />
  <metadata
     id="metadata334">
    <rdf:RDF>
      <cc:Work
         rdf:about="">
        <dc:title>URY-Plain-WithSpace-White</dc:title>
      </cc:Work>
    </rdf:RDF>
  </metadata>
  <g
     aria-label="On Tap"
     transform="translate(-530.04576,-142.24387)"
     id="text442"
     style="font-weight:600;font-size:133.333px;line-height:1.25;font-family:Raleway;-inkscape-font-specification:'Raleway Semi-Bold';text-align:end;white-space:pre;shape-inside:url(#rect444);display:inline;fill:#ffffff">
    <path
       d="m 1033.7715,623.94601 q -10.4,0 -18.9333,-3.99999 -8.4,-4.13332 -14.5333,-10.79997 -5.99997,-6.79999 -9.3333,-15.46663 -3.33332,-8.66664 -3.33332,-17.73329 0,-9.46664 3.46666,-18.13329 3.59999,-8.66664 9.73326,-15.33329 6.2667,-6.66665 14.8,-10.53331 8.5333,-3.99999 18.5333,-3.99999 10.2666,0 18.6666,4.26666 8.5333,4.13332 14.5333,10.93331 6,6.79998 9.3333,15.46662 3.3333,8.66665 3.3333,17.59996 0,9.46664 -3.4666,18.13328 -3.4667,8.53332 -9.6,15.19997 -6.1333,6.53331 -14.6666,10.5333 -8.5333,3.86666 -18.5333,3.86666 z m -27.4666,-47.99988 q 0,6.13332 1.8667,11.86664 1.8666,5.73332 5.3333,10.13331 3.6,4.39998 8.6666,7.06664 5.2,2.66666 11.7333,2.66666 6.6667,0 11.7333,-2.66666 5.2,-2.79999 8.6667,-7.33331 3.6,-4.53332 5.3333,-10.13331 1.8667,-5.73332 1.8667,-11.59997 0,-6.13332 -2,-11.86663 -1.8667,-5.73332 -5.4667,-10.13331 -3.4666,-4.39999 -8.6666,-6.93332 -5.0667,-2.66666 -11.4667,-2.66666 -6.6666,0 -11.8666,2.8 -5.2,2.66666 -8.6667,7.19998 -3.4666,4.39999 -5.3333,10.1333 -1.7333,5.59999 -1.7333,11.46664 z"
       style="font-weight:bold;-inkscape-font-specification:'Raleway Bold'"
       id="path863" />
    <path
       d="m 1157.3712,623.27934 h -17.8666 v -39.1999 q 0,-8.39997 -2.9333,-12.26663 -2.9333,-3.86666 -8.1333,-3.86666 -2.6667,0 -5.4667,1.06667 -2.8,1.06666 -5.3333,3.06665 -2.4,1.86667 -4.4,4.53333 -2,2.66666 -2.9333,5.86665 v 40.79989 h -17.8666 v -69.86648 h 16.1333 v 12.9333 q 3.8666,-6.66665 11.1999,-10.39998 7.3334,-3.73332 16.5333,-3.73332 6.5334,0 10.6667,2.39999 4.1333,2.4 6.4,6.26665 2.2666,3.86666 3.0666,8.79998 0.9333,4.93332 0.9333,9.99998 z"
       style="font-weight:bold;-inkscape-font-specification:'Raleway Bold'"
       id="path865" />
    <path
       d="m 1273.7709,544.74621 h -30.2665 v 78.53313 h -18.2667 v -78.53313 h -30.2665 v -16.13329 h 78.7997 z"
       style="font-weight:bold;-inkscape-font-specification:'Raleway Bold'"
       id="path867" />
    <path
       d="m 1288.1708,624.61267 q -5.0667,0 -9.4667,-1.59999 -4.4,-1.73333 -7.6,-4.66666 -3.1999,-3.06666 -5.0666,-7.06665 -1.7333,-3.99999 -1.7333,-8.79997 0,-4.93332 2.1333,-9.06665 2.2667,-4.26665 6.1333,-7.19998 4,-2.93332 9.4667,-4.53332 5.4666,-1.73333 11.9999,-1.73333 4.6667,0 9.0667,0.8 4.5333,0.8 7.9999,2.26666 v -3.99999 q 0,-6.93332 -3.9999,-10.66664 -3.8667,-3.73332 -11.6,-3.73332 -5.6,0 -10.9333,1.99999 -5.3333,2 -10.9333,5.86665 l -5.4667,-11.3333 q 13.4667,-8.93331 29.0666,-8.93331 15.0666,0 23.3333,7.46665 8.4,7.33331 8.4,21.33328 v 21.73327 q 0,2.8 0.9333,3.99999 1.0667,1.2 3.3333,1.33333 v 15.19996 q -4.5333,0.93334 -7.8666,0.93334 -5.0667,0 -7.8667,-2.26667 -2.6666,-2.26666 -3.3333,-5.99998 l -0.4,-3.86666 q -4.6667,6.13332 -11.3333,9.33331 -6.6667,3.19999 -14.2666,3.19999 z m 5.0666,-13.06663 q 4.5333,0 8.5333,-1.6 4.1334,-1.59999 6.4,-4.26665 2.9333,-2.26666 2.9333,-5.06665 v -7.99998 q -3.1999,-1.2 -6.9333,-1.86667 -3.7333,-0.79999 -7.2,-0.79999 -6.9333,0 -11.3333,3.19999 -4.3999,3.06666 -4.3999,7.86664 0,4.53333 3.4666,7.59998 3.4667,2.93333 8.5333,2.93333 z"
       style="font-weight:bold;-inkscape-font-specification:'Raleway Bold'"
       id="path869" />
    <path
       d="m 1387.5038,624.61267 q -8.2667,0 -14.4,-3.59999 -6.1333,-3.73332 -9.6,-9.99997 v 40.66656 h -17.8666 v -98.26641 h 15.6 v 11.99997 q 3.8666,-6.13332 9.9999,-9.59998 6.1334,-3.59999 14.1333,-3.59999 7.0667,0 13.0667,2.93332 6,2.8 10.2666,7.73332 4.4,4.79999 6.8,11.46664 2.5333,6.53331 2.5333,13.86663 0,7.59998 -2.2666,14.26663 -2.2667,6.66665 -6.4,11.59997 -4,4.93332 -9.6,7.73331 -5.6,2.79999 -12.2666,2.79999 z m -6,-15.19996 q 4,0 7.3333,-1.73333 3.4666,-1.73332 5.8666,-4.66665 2.4,-2.93333 3.7334,-6.79998 1.3333,-3.86666 1.3333,-7.99998 0,-4.39999 -1.4667,-8.13332 -1.4666,-3.86665 -4.1333,-6.66665 -2.5333,-2.79999 -6.1333,-4.39998 -3.4667,-1.6 -7.6,-1.6 -2.5333,0 -5.2,0.93333 -2.6666,0.8 -4.9333,2.4 -2.2667,1.59999 -4.1333,3.73332 -1.7333,2.13333 -2.6667,4.66665 v 16.39996 q 2.4,5.99999 7.3333,9.99998 4.9334,3.86665 10.6667,3.86665 z"
       style="font-weight:bold;-inkscape-font-specification:'Raleway Bold'"
       id="path871" />
  </g>
</svg>
