<svg id="Layer_1" data-name="Layer 1" xmlns="http://www.w3.org/2000/svg" viewBox="0 0 785.93 329.73"><title>PinnedTabIcon</title><g id="Layer_2" data-name="Layer 2"><path d="M143.88,231.23S6.35,289.74,7,396.2C7.66,506.08,143.88,561,143.88,561S62.75,483.6,62.75,396.13C62.75,294.47,143.88,231.23,143.88,231.23Z" transform="translate(-7 -231.23)"/><path d="M194.32,268.63s-106.54,45.19-106,127.5c.44,84.85,106,127.28,106,127.28s-62.66-59.82-62.66-127.5C131.51,317.39,194.32,268.63,194.32,268.63Z" transform="translate(-7 -231.23)"/><path d="M656,231.23s137.54,58.51,136.88,165C792.28,506.08,656,561,656,561s81-77.36,81-164.9C737.19,294.47,656,231.23,656,231.23Z" transform="translate(-7 -231.23)"/><path d="M605.62,268.63s106.54,45.19,106,127.5c-.44,84.85-106,127.28-106,127.28s62.66-59.82,62.66-127.5C668.42,317.39,605.62,268.63,605.62,268.63Z" transform="translate(-7 -231.23)"/></g><path d="M243,327v59.91a14.59,14.59,0,0,0,.58,2.55c.36,1.31.8,2.84,1.23,4.37a45.06,45.06,0,0,0,1.45,4.73c.58,1.53.87,2.62,1.23,3.42a26.13,26.13,0,0,0,5,7.79,27,27,0,0,0,6.88,5,31,31,0,0,0,8.18,2.77,46,46,0,0,0,8.84.87c8.11,0,14.56-1.53,19.34-4.73S304.57,405,308,397.1c.14-.36.36-.8.58-1.46a4.92,4.92,0,0,0,.65-1.89c.22-.65.36-1.31.58-1.89a2.66,2.66,0,0,0,.22-1V326h25v68.48c0,.22-.14.58-.22,1.09s-.22,1.09-.43,1.75a10.06,10.06,0,0,0-.43,1.89,10.46,10.46,0,0,1-.36,1.46,72.71,72.71,0,0,1-8.19,18.7,56.71,56.71,0,0,1-12.47,14,52.41,52.41,0,0,1-16.45,9,62,62,0,0,1-41.39-.73,62.82,62.82,0,0,1-19.06-11,57.74,57.74,0,0,1-13.7-17,45.31,45.31,0,0,1-5.29-21.9V326l25.42,1Z" transform="translate(-7 -231.23)"/><path d="M343.15,386A62,62,0,0,1,347,364.78a66.72,66.72,0,0,1,10.83-19.32,55.74,55.74,0,0,1,16.61-14A42.78,42.78,0,0,1,395.68,326H463v27H394.57a15.39,15.39,0,0,0-8.68,3,42.48,42.48,0,0,0-7.87,7.15,45.75,45.75,0,0,0-5.81,9.12,21.64,21.64,0,0,0-2.21,8.91V446H343V386Z" transform="translate(-7 -231.23)"/><path d="M496,438.44A71.19,71.19,0,0,1,480.93,427a59.56,59.56,0,0,1-10.81-15.16A41.22,41.22,0,0,1,466,393.48V326h25v61.39c.29,1.31.51,2.84.95,4.51a31.58,31.58,0,0,0,1.75,5c.8,1.75,1.46,3.42,2.33,4.95s1.53,3,2.18,4.15a24,24,0,0,0,5.17,6.4,23.74,23.74,0,0,0,6.48,3.93,30.59,30.59,0,0,0,7.5,1.89,59.24,59.24,0,0,0,8,.58c7.13,0,13.17-1.46,18.27-4.37s9-7.71,11.79-14.48a23.81,23.81,0,0,0,.87-2.33,28.1,28.1,0,0,0,1.09-2.84c.29-.95.65-1.75.87-2.4s.36-1.09-.24-1.24V327h26v69.43a25.83,25.83,0,0,1-1,6.59,48.27,48.27,0,0,1-2.56,7.1c-1,2.39-2.12,4.56-3.3,6.81s-2.34,3.91-3.3,5.5A40.46,40.46,0,0,1,559,436.76a96.06,96.06,0,0,1-19,8.18l-2,1.23V492H513V445.8A92.25,92.25,0,0,1,496,438.44Z" transform="translate(-7 -231.23)"/></svg>