<svg width="580" height="580" xmlns="http://www.w3.org/2000/svg">
 <!-- Created with Method Draw - http://github.com/duopixel/Method-Draw/ -->
 <g>
  <title>background</title>
  <rect fill="none" id="canvas_background" height="582" width="582" y="-1" x="-1"/>
 </g>
 <g>
  <title>Layer 1</title>
  <ellipse stroke="#000" ry="287.999937" rx="287.99993" id="svg_10" cy="289.999984" cx="289.749924" stroke-width="0" fill="#fff"/>
  <g stroke="null" id="svg_12">
   <path stroke="null" id="svg_1" fill="#DFA22F" d="m369.103627,61.85366c-7.984848,-24.572975 -34.386171,-38.019878 -58.962678,-30.033409c-24.580609,7.982368 -38.03169,34.375492 -30.042728,58.944365l120.998175,372.16514c8.309162,22.955977 33.11352,35.854989 56.924379,29.005337c24.837188,-7.147196 39.975554,-33.51774 32.050236,-57.901928l-120.967384,-372.179505"/>
   <path stroke="null" id="svg_2" fill="#3CB187" d="m181.61772,122.7536c-7.98895,-24.570924 -34.388211,-38.017828 -58.964717,-30.03546c-24.58266,7.984419 -38.035804,34.37548 -30.044791,58.948454l121.000226,372.167202c8.307122,22.953927 33.11352,35.854989 56.924379,28.999186c24.835137,-7.143095 39.973515,-33.513639 32.048185,-57.90194l-120.963282,-372.177443"/>
   <path stroke="null" id="svg_3" fill="#CE1E5B" d="m521.406926,370.081865c24.580609,-7.982368 38.027588,-34.371379 30.04274,-58.946404c-7.984848,-24.568874 -34.386171,-38.017828 -58.962666,-30.033409l-372.280775,120.964696c-22.963109,8.302492 -35.866128,33.099134 -29.014349,56.902599c7.149416,24.827423 33.528153,39.96315 57.919917,32.040282l372.295133,-120.925713"/>
   <path stroke="null" id="svg_4" fill="#392538" d="m197.796796,475.196746l88.976666,-28.900692l-28.913773,-88.959296l-88.982832,28.912995l28.919938,88.949044"/>
   <path stroke="null" id="svg_5" fill="#BB242A" d="m385.284754,414.294755c33.638996,-10.922919 64.905114,-21.08043 88.978718,-28.900692l-28.917875,-88.975712l-88.982832,28.913007l28.921989,88.963397"/>
   <path stroke="null" id="svg_6" fill="#72C5CD" d="m460.488065,182.652148c24.578558,-7.982368 38.029651,-34.373441 30.044791,-58.948466c-7.984848,-24.568874 -34.38616,-38.015777 -58.966768,-30.033409l-372.282826,120.966758c-22.961058,8.298379 -35.866128,33.097072 -29.008195,56.900537c7.145314,24.825373 33.524051,39.9611 57.919929,32.038231l372.29307,-120.925702"/>
   <path stroke="null" id="svg_7" fill="#248C73" d="m136.861515,287.771119c24.231658,-7.871559 55.47315,-18.020856 88.991048,-28.904793c-10.926313,-33.63265 -21.086991,-64.889068 -28.909671,-88.959296l-89.003366,28.917108l28.921989,88.946982"/>
   <path stroke="null" id="svg_8" fill="#62803A" d="m324.347422,226.873241l88.995138,-28.908906a1121120.468002,1120772.270159 0 0 0 -28.919926,-88.975712l-88.997201,28.917108l28.921989,88.96751"/>
  </g>
 </g>
</svg>